<svg xmlns="http://www.w3.org/2000/svg" width="1280" height="640" viewBox="0 0 1280 640">
  <defs>
    <linearGradient id="bg" x1="0%" y1="0%" x2="100%" y2="100%">
      <stop offset="0%" style="stop-color:#0d1117"/>
      <stop offset="100%" style="stop-color:#161b22"/>
    </linearGradient>
    <linearGradient id="accent" x1="0%" y1="0%" x2="100%" y2="0%">
      <stop offset="0%" style="stop-color:#58a6ff"/>
      <stop offset="100%" style="stop-color:#bc8cff"/>
    </linearGradient>
  </defs>

  <!-- Background -->
  <rect width="1280" height="640" fill="url(#bg)"/>

  <!-- Subtle grid pattern -->
  <g opacity="0.03" stroke="#58a6ff" stroke-width="1">
    <line x1="0" y1="80" x2="1280" y2="80"/>
    <line x1="0" y1="160" x2="1280" y2="160"/>
    <line x1="0" y1="240" x2="1280" y2="240"/>
    <line x1="0" y1="320" x2="1280" y2="320"/>
    <line x1="0" y1="400" x2="1280" y2="400"/>
    <line x1="0" y1="480" x2="1280" y2="480"/>
    <line x1="0" y1="560" x2="1280" y2="560"/>
    <line x1="160" y1="0" x2="160" y2="640"/>
    <line x1="320" y1="0" x2="320" y2="640"/>
    <line x1="480" y1="0" x2="480" y2="640"/>
    <line x1="640" y1="0" x2="640" y2="640"/>
    <line x1="800" y1="0" x2="800" y2="640"/>
    <line x1="960" y1="0" x2="960" y2="640"/>
    <line x1="1120" y1="0" x2="1120" y2="640"/>
  </g>

  <!-- Top accent line -->
  <rect x="0" y="0" width="1280" height="3" fill="url(#accent)"/>

  <!-- Title: emilio -->
  <text x="640" y="185" font-family="'SF Mono', 'Fira Code', 'Consolas', monospace" font-size="96" font-weight="700" fill="#e6edf3" text-anchor="middle" letter-spacing="-2">emilio</text>

  <!-- The EML equation -->
  <text x="640" y="275" font-family="'SF Mono', 'Fira Code', 'Consolas', monospace" font-size="36" fill="#58a6ff" text-anchor="middle" opacity="0.9">a × b = exp( ln(a) + ln(b) )</text>

  <!-- Divider -->
  <rect x="440" y="310" width="400" height="1" fill="#30363d"/>

  <!-- Tagline -->
  <text x="640" y="370" font-family="-apple-system, 'Segoe UI', Helvetica, Arial, sans-serif" font-size="28" fill="#8b949e" text-anchor="middle">LLM inference through a single algebraic primitive</text>

  <!-- Stats row -->
  <g font-family="'SF Mono', 'Fira Code', 'Consolas', monospace" text-anchor="middle">
    <!-- Stat 1 -->
    <text x="280" y="460" font-size="40" font-weight="700" fill="#e6edf3">494M</text>
    <text x="280" y="490" font-size="16" fill="#8b949e">parameters</text>

    <!-- Stat 2 -->
    <text x="520" y="460" font-size="40" font-weight="700" fill="#e6edf3">~30</text>
    <text x="520" y="490" font-size="16" fill="#8b949e">tok/s GPU</text>

    <!-- Stat 3 -->
    <text x="760" y="460" font-size="40" font-weight="700" fill="#e6edf3">4</text>
    <text x="760" y="490" font-size="16" fill="#8b949e">pure EML kernels</text>

    <!-- Stat 4 -->
    <text x="1000" y="460" font-size="40" font-weight="700" fill="#e6edf3">0</text>
    <text x="1000" y="490" font-size="16" fill="#8b949e">native multiplies</text>
  </g>

  <!-- Bottom: model + tech -->
  <text x="640" y="575" font-family="-apple-system, 'Segoe UI', Helvetica, Arial, sans-serif" font-size="20" fill="#484f58" text-anchor="middle">Qwen2.5-0.5B-Instruct  ·  Rust  ·  Metal GPU  ·  Apple Silicon</text>

  <!-- Bottom accent line -->
  <rect x="0" y="637" width="1280" height="3" fill="url(#accent)"/>
</svg>
