<svg xmlns="http://www.w3.org/2000/svg" width="1280" height="640" viewBox="0 0 1280 640">
  <defs>
    <linearGradient id="bg" x1="0%" y1="0%" x2="100%" y2="100%">
      <stop offset="0%" style="stop-color:#0d1117"/>
      <stop offset="100%" style="stop-color:#161b22"/>
    </linearGradient>
    <linearGradient id="accent" x1="0%" y1="0%" x2="100%" y2="0%">
      <stop offset="0%" style="stop-color:#58a6ff"/>
      <stop offset="100%" style="stop-color:#bc8cff"/>
    </linearGradient>
  </defs>

  <!-- Background -->
  <rect width="1280" height="640" fill="url(#bg)"/>

  <!-- Subtle grid pattern -->
  <g opacity="0.03" stroke="#58a6ff" stroke-width="1">
    <line x1="0" y1="80" x2="1280" y2="80"/>
    <line x1="0" y1="160" x2="1280" y2="160"/>
    <line x1="0" y1="240" x2="1280" y2="240"/>
    <line x1="0" y1="320" x2="1280" y2="320"/>
    <line x1="0" y1="400" x2="1280" y2="400"/>
    <line x1="0" y1="480" x2="1280" y2="480"/>
    <line x1="0" y1="560" x2="1280" y2="560"/>
    <line x1="160" y1="0" x2="160" y2="640"/>
    <line x1="320" y1="0" x2="320" y2="640"/>
    <line x1="480" y1="0" x2="480" y2="640"/>
    <line x1="640" y1="0" x2="640" y2="640"/>
    <line x1="800" y1="0" x2="800" y2="640"/>
    <line x1="960" y1="0" x2="960" y2="640"/>
    <line x1="1120" y1="0" x2="1120" y2="640"/>
  </g>

  <!-- Top accent line -->
  <rect x="0" y="0" width="1280" height="3" fill="url(#accent)"/>

  <!-- Title: emilio -->
  <text x="640" y="160" font-family="'SF Mono', 'Fira Code', 'Consolas', monospace" font-size="96" font-weight="700" fill="#e6edf3" text-anchor="middle" letter-spacing="-2">emilio</text>

  <!-- Tagline -->
  <text x="640" y="215" font-family="-apple-system, 'Segoe UI', Helvetica, Arial, sans-serif" font-size="26" fill="#8b949e" text-anchor="middle">Transformer inference through unconventional compute</text>

  <!-- Divider -->
  <rect x="340" y="240" width="600" height="1" fill="#30363d"/>

  <!-- Three engines row -->
  <g font-family="'SF Mono', 'Fira Code', 'Consolas', monospace" text-anchor="middle">
    <!-- Engine 1: EML -->
    <text x="240" y="305" font-size="18" fill="#58a6ff" font-weight="700">EML Primitive</text>
    <text x="240" y="335" font-size="14" fill="#8b949e" font-family="-apple-system, 'Segoe UI', Helvetica, Arial, sans-serif">exp(x) − ln(y)</text>
    <text x="240" y="370" font-size="36" font-weight="700" fill="#e6edf3">~30</text>
    <text x="240" y="395" font-size="14" fill="#8b949e">tok/s · Metal GPU</text>

    <!-- Engine 2: Tag System -->
    <text x="640" y="305" font-size="18" fill="#bc8cff" font-weight="700">Tag System</text>
    <text x="640" y="335" font-size="14" fill="#8b949e" font-family="-apple-system, 'Segoe UI', Helvetica, Arial, sans-serif">Post 2-tag scheduler</text>
    <text x="640" y="370" font-size="36" font-weight="700" fill="#e6edf3">~12</text>
    <text x="640" y="395" font-size="14" fill="#8b949e">tok/s · Metal GPU</text>

    <!-- Engine 3: ANE Convolution -->
    <text x="1040" y="305" font-size="18" fill="#3fb950" font-weight="700">ANE Convolution</text>
    <text x="1040" y="335" font-size="14" fill="#8b949e" font-family="-apple-system, 'Segoe UI', Helvetica, Arial, sans-serif">Conv2d(1×1) on Neural Engine</text>
    <text x="1040" y="370" font-size="36" font-weight="700" fill="#e6edf3">171</text>
    <text x="1040" y="395" font-size="14" fill="#8b949e">tok/s · ANE 16 cores</text>
  </g>

  <!-- Divider -->
  <rect x="340" y="425" width="600" height="1" fill="#30363d"/>

  <!-- Stats row -->
  <g font-family="'SF Mono', 'Fira Code', 'Consolas', monospace" text-anchor="middle">
    <text x="320" y="480" font-size="32" font-weight="700" fill="#e6edf3">494M</text>
    <text x="320" y="505" font-size="14" fill="#8b949e">parameters</text>

    <text x="640" y="480" font-size="32" font-weight="700" fill="#e6edf3">3</text>
    <text x="640" y="505" font-size="14" fill="#8b949e">inference engines</text>

    <text x="960" y="480" font-size="32" font-weight="700" fill="#e6edf3">3</text>
    <text x="960" y="505" font-size="14" fill="#8b949e">papers</text>
  </g>

  <!-- Bottom: model + tech -->
  <text x="640" y="575" font-family="-apple-system, 'Segoe UI', Helvetica, Arial, sans-serif" font-size="20" fill="#484f58" text-anchor="middle">Qwen 2.5-0.5B  ·  Rust  ·  Swift  ·  Metal GPU  ·  CoreML  ·  Apple Silicon</text>

  <!-- Bottom accent line -->
  <rect x="0" y="637" width="1280" height="3" fill="url(#accent)"/>
</svg>
